<svg xmlns="http://www.w3.org/2000/svg" xmlns:xlink="http://www.w3.org/1999/xlink" id="Layer_1" x="0" y="0" version="1.1" viewBox="0 0 128 128" xml:space="preserve" style="enable-background:new 0 0 128 128"><style type="text/css">.st0{fill:#e13131}.st1{fill:#fdd21b}.st2{fill:#4aad4b}.st3{fill:none}.st4{fill:#fff}.st5{fill:#1b8ccd}</style><path d="M112.2,30H64c-18.8,0-34,15.2-34,34c0,5.8,1.5,11.3,4.1,16.1L10.4,39.2C19.8,19,40.3,5,64,5	C83.9,5,101.5,14.9,112.2,30z" class="st0"/><path d="M123,64c0,30.8-23.6,56.1-53.7,58.8l23.7-41l0.1-0.1C96.2,76.5,98,70.5,98,64c0-18.8-15.2-34-34-34h48.2	C119,39.6,123,51.3,123,64z" class="st1"/><path d="M93,81.8l-23.7,41c-1.8,0.2-3.5,0.2-5.3,0.2C31.4,123,5,96.6,5,64c0-8.9,2-17.2,5.4-24.8l23.6,40.9l0,0.1	C39.9,90.8,51.1,98,64,98C76.3,98,87,91.5,93,81.8z" class="st2"/><path d="M98,64c0,6.5-1.8,12.5-4.9,17.6L93,81.8C87,91.5,76.3,98,64,98c-12.9,0-24.1-7.2-29.9-17.8l0-0.1	C31.5,75.3,30,69.8,30,64c0-18.8,15.2-34,34-34S98,45.2,98,64z" class="st3"/><line x1="34.6" x2="34.1" y1="81" y2="80.2" class="st3"/><line x1="93.4" x2="93.1" y1="81" y2="81.6" class="st3"/><circle cx="64" cy="64" r="47" class="st4"/><circle cx="64" cy="64" r="44" class="st5"/><path id="path4140" d="M81.4,81.8c-13.4,0-17.4-6.5-19.5-12.7l-2.3-7.6C57.7,55.9,55.7,51,48.3,51	c-4.9,0-10,3.5-10,13.4c0,7.4,3.9,12.5,9.7,12.5c4.6,0,8.1-2.5,9.5-3.9l1.9,5.3c-1.2,0.9-5.1,3.5-11.8,3.5c-10.4,0-16-6-16-17.1	c0-11.8,5.8-18.3,16.4-18.3c10,0,14.6,3.5,17.8,13l2.5,7.6c1.6,4.6,4.4,10,13.2,10c3.7,0,8.6-0.5,8.6-4.6c0-2.8-1.9-4.4-5.6-5.3	l-5.1-1.2c-5.8-1.4-8.3-4.2-8.3-9.3c0-8.8,8.1-10.2,12.7-10.2c7.6,0,11.6,2.8,12.3,8.3l-6.3,0.7c-0.5-3-2.5-4.6-6.5-4.6	c-3.7,0-6,1.9-6,4.9c0,2.8,1.4,4.2,4.9,5.1l4.9,1.2c6.5,1.6,9.5,4.6,9.5,10.2C96.4,78.4,91.3,81.8,81.4,81.8z" class="st4"/></svg>