<svg xmlns="http://www.w3.org/2000/svg" xmlns:svg="http://www.w3.org/2000/svg" id="svg4148" width="128" height="128" version="1.1" viewBox="0 0 128 128"><metadata id="metadata4153"/><g id="layer1" transform="translate(0,-924.36216)"><rect style="fill:#e03131;fill-opacity:1" id="rect5840" width="118" height="118" x="5" y="929.362" ry="20"/><path style="fill:#fcd11c;fill-rule:evenodd;stroke:none;stroke-width:1px;stroke-linecap:butt;stroke-linejoin:miter;stroke-opacity:1;fill-opacity:1" id="path4737" d="M 76.427734 27.642578 L 95 101.21484 L 68.773438 123 L 103 123 C 114.08 123 123 114.08 123 103 L 123 29.367188 L 76.427734 27.642578 z" transform="translate(0,924.36216)"/><path style="fill:#49ac4b;fill-rule:evenodd;stroke:none;stroke-width:1px;stroke-linecap:butt;stroke-linejoin:miter;stroke-opacity:1;fill-opacity:1" id="path4718" d="M 5 37.957031 L 5 103 C 5 114.08 13.92 123 25 123 L 79.832031 123 L 92.142578 99.785156 L 32.857422 91.927734 L 5 37.957031 z" transform="translate(0,924.36216)"/><rect style="fill:#fff;fill-opacity:1" id="rect5846" width="94" height="94" x="17" y="941.362" ry="12"/><g id="g5836" transform="matrix(2.3157895,0,0,2.3157895,20,944.36216)"><path style="fill:#178dce;fill-opacity:1" id="path4138" d="M 34,38 4,38 C 1.8,38 0,36.2 0,34 L 0,4 C 0,1.8 1.8,0 4,0 l 30,0 c 2.2,0 4,1.8 4,4 l 0,30 c 0,2.2 -1.8,4 -4,4 z"/><path id="path4140" d="m 26.5,26.7 c -5.8,0 -7.5,-2.8 -8.4,-5.5 l -1,-3.3 c -0.8,-2.4 -1.7,-4.5 -4.9,-4.5 -2.1,0 -4.3,1.5 -4.3,5.8 0,3.2 1.7,5.4 4.2,5.4 2,0 3.5,-1.1 4.1,-1.7 l 0.8,2.3 c -0.5,0.4 -2.2,1.5 -5.1,1.5 -4.5,0 -6.9,-2.6 -6.9,-7.4 0,-5.1 2.5,-7.9 7.1,-7.9 4.3,0 6.3,1.5 7.7,5.6 l 1.1,3.3 c 0.7,2 1.9,4.3 5.7,4.3 1.6,0 3.7,-0.2 3.7,-2 0,-1.2 -0.8,-1.9 -2.4,-2.3 l -2.2,-0.5 c -2.5,-0.6 -3.6,-1.8 -3.6,-4 0,-3.8 3.5,-4.4 5.5,-4.4 3.3,0 5,1.2 5.3,3.6 l -2.7,0.3 c -0.2,-1.3 -1.1,-2 -2.8,-2 -1.6,0 -2.6,0.8 -2.6,2.1 0,1.2 0.6,1.8 2.1,2.2 l 2.1,0.5 c 2.8,0.7 4.1,2 4.1,4.4 -0.1,2.7 -2.3,4.2 -6.6,4.2 z" style="fill:#fff"/></g></g></svg>