<svg xmlns="http://www.w3.org/2000/svg" xmlns:svg="http://www.w3.org/2000/svg" id="svg4136" x="0" y="0" enable-background="new 0 0 38 38" version="1.1" viewBox="0 0 38 38" xml:space="preserve"><metadata id="metadata4146"/><path id="path4138" fill="#d51007" d="M34 38H4c-2.2 0-4-1.8-4-4V4c0-2.2 1.8-4 4-4h30c2.2 0 4 1.8 4 4v30C38 36.2 36.2 38 34 38z"/><path id="path4136" d="m 28.670467,9.6410325 c -2.5687,-2.50174 -6.38894,-2.05174 -8.7467,0.7285595 l -0.92342,1.08748 -0.92342,-1.08748 c -2.35308,-2.7802995 -6.17801,-3.2302995 -8.7467101,-0.7285595 -2.94369,2.8713795 -3.09838,8.0248595 -0.46405,11.1372995 l 9.0701301,10.70338 c 0.58593,0.69105 1.53747,0.69105 2.1234,0 l 9.07014,-10.70338 c 2.63901,-3.11244 2.48433,-8.26592 -0.45937,-11.1372995 z" style="fill:#fff;fill-opacity:1"/></svg>