<svg xmlns="http://www.w3.org/2000/svg" xmlns:svg="http://www.w3.org/2000/svg" id="svg2" x="0" y="0" enable-background="new 0 0 38 38" version="1.1" viewBox="0 0 38 38" xml:space="preserve"><metadata id="metadata12"/><path id="path4" fill="#d51007" d="M34 38H4c-2.2 0-4-1.8-4-4V4c0-2.2 1.8-4 4-4h30c2.2 0 4 1.8 4 4v30C38 36.2 36.2 38 34 38z"/><path id="path4136" d="m 29.204093,10.238313 -0.11249,-0.13391 c -2.15613,-2.517511 -5.53093,-2.769261 -7.94954,-0.792751 l 1.60772,5.538511 -4.49974,3.428089 2.24987,6.85619 -6.74961,-7.71321 4.49974,-3.42809 -1.34055,-4.63328 c -2.42329,-2.02472 -5.83091,-1.78904 -8.0010901,0.74989 l -0.1125,0.12856 c -2.2826798,2.66748 -2.3811098,6.9151 -0.3421598,9.75935 l 9.9416099,11.70908 c 0.33279,0.39101 0.87182,0.39101 1.20461,0 l 9.9463,-11.71444 c 2.03894,-2.83889 1.94051,-7.08651 -0.34217,-9.75399 z" style="fill:#fff;fill-opacity:1"/></svg>